<?xml version="1.0" standalone="no"?>
<!DOCTYPE svg PUBLIC "-//W3C//DTD SVG 20010904//EN"
 "http://www.w3.org/TR/2001/REC-SVG-20010904/DTD/svg10.dtd">
<svg version="1.0" xmlns="http://www.w3.org/2000/svg"
 width="1024.000000pt" height="1024.000000pt" viewBox="0 0 1024.000000 1024.000000"
 preserveAspectRatio="xMidYMid meet">
<metadata>
Created by potrace 1.11, written by Peter Selinger 2001-2013
</metadata>
<g transform="translate(0.000000,1024.000000) scale(0.100000,-0.100000)"
fill="#000000" stroke="none">
<path d="M3400 8345 l0 -1545 -300 0 -300 0 0 535 0 535 -680 0 -680 0 0
-1265 0 -1265 1680 0 1680 0 0 2275 0 2275 -700 0 -700 0 0 -1545z"/>
<path d="M6020 8445 l0 -1445 860 0 860 0 0 -220 0 -220 -860 0 -860 0 0 -610
0 -610 1600 0 1600 0 0 1440 0 1440 -870 0 -870 0 0 175 0 175 870 0 870 0 0
660 0 660 -1600 0 -1600 0 0 -1445z"/>
<path d="M1000 2615 l0 -2275 755 0 755 0 0 1107 0 1108 298 -298 c163 -163
302 -297 307 -297 5 0 144 134 307 297 l298 298 0 -1108 0 -1107 760 0 760 0
0 2275 0 2275 -686 0 -687 0 -255 -247 c-141 -137 -311 -301 -377 -365 l-121
-117 -374 364 -375 364 -682 1 -683 0 0 -2275z"/>
<path d="M6730 2615 l0 -2275 895 0 895 0 0 2275 0 2275 -895 0 -895 0 0
-2275z"/>
</g>
</svg>
